<?xml version="1.0" encoding="UTF-8" standalone="no"?>
<svg
   version="1.1"
   viewBox="0 0 400.00001 1080"
   id="svg11"
   sodipodi:docname="blob_scene_3_right.svg"
   width="400"
   height="1080"
   inkscape:version="1.4.2 (ebf0e940d0, 2025-05-08)"
   xmlns:inkscape="http://www.inkscape.org/namespaces/inkscape"
   xmlns:sodipodi="http://sodipodi.sourceforge.net/DTD/sodipodi-0.dtd"
   xmlns="http://www.w3.org/2000/svg"
   xmlns:svg="http://www.w3.org/2000/svg">
  <sodipodi:namedview
     id="namedview11"
     pagecolor="#ffffff"
     bordercolor="#000000"
     borderopacity="0.25"
     inkscape:showpageshadow="2"
     inkscape:pageopacity="0.0"
     inkscape:pagecheckerboard="0"
     inkscape:deskcolor="#d1d1d1"
     inkscape:zoom="0.70710678"
     inkscape:cx="-1005.5058"
     inkscape:cy="562.857"
     inkscape:window-width="2991"
     inkscape:window-height="1179"
     inkscape:window-x="0"
     inkscape:window-y="0"
     inkscape:window-maximized="1"
     inkscape:current-layer="svg11" />
  <defs
     id="defs1">
    <style
       id="style1">
      .cls-1 {
        fill: #3251b1;
      }

      .cls-2 {
        fill: #7c61e7;
      }

      .cls-3 {
        fill: #001220;
      }

      .cls-4 {
        fill: #a566ff;
      }

      .cls-5 {
        fill: #003a75;
      }

      .cls-6 {
        fill: #00203b;
      }
    </style>
  </defs>
  <!-- Generator: Adobe Illustrator 28.6.0, SVG Export Plug-In . SVG Version: 1.2.0 Build 709)  -->
  <g
     id="g11"
     transform="rotate(90,200,200)"
     style="display:inline">
    <g
       id="Layer_1">
      <g
         id="visual">
        <rect
           class="cls-3"
           width="1080"
           height="400"
           id="rect1"
           x="0"
           y="2.2737368e-13"
           style="display:inline;stroke-width:1.98534"
           inkscape:label="rect1" />
        <g
           id="g5"
           style="display:inline">
          <path
             class="cls-6"
             d="m 351,0 c -10,34.5 -20,69 -29,104.6 -9.2,35.6 -17.5,72.3 -38,101.7 -20.6,29.4 -53.4,51.5 -86.2,65.9 -32.8,14.4 -65.7,21.2 -98.6,33 C 66.2,317.1 33.1,334 0,351 V 0 Z"
             id="path1" />
          <path
             class="cls-5"
             d="m 280.8,0 c -8,27.6 -15.9,55.2 -23.2,83.7 -7.3,28.5 -13.9,57.9 -30.4,81.4 -16.4,23.5 -42.6,41.2 -68.9,52.7 -26.2,11.6 -52.5,16.9 -78.9,26.4 C 53,253.7 26.5,267.2 0,280.8 V 0 Z"
             id="path2" />
          <path
             class="cls-1"
             d="m 210.6,0 c -6,20.7 -12,41.4 -17.5,62.7 -5.4,21.3 -10.4,43.4 -22.7,61.1 -12.3,17.6 -32,30.9 -51.7,39.6 C 99,172 79.4,176.1 59.5,183.2 39.7,190.3 19.9,200.4 0,210.6 V 0 Z"
             id="path3" />
          <path
             class="cls-2"
             d="m 140.4,0 c -4,13.8 -8,27.6 -11.6,41.8 C 125.1,56 121.9,70.7 113.6,82.5 105.4,94.2 92.3,103 79.1,108.8 66,114.5 52.9,117.3 39.7,122 26.5,126.8 13.2,133.6 0,140.4 V 0 Z"
             id="path4" />
          <path
             class="cls-4"
             d="m 70.2,0 c -2,6.9 -4,13.8 -5.8,20.9 C 62.5,28 60.9,35.4 56.8,41.3 52.7,47.2 46.1,51.6 39.6,54.5 33.1,57.4 26.5,58.7 19.9,61.1 13.2,63.4 6.6,66.8 0,70.2 V 0 Z"
             id="path5" />
        </g>
      </g>
    </g>
  </g>
  <g
     id="g10"
     style="display:none"
     transform="rotate(90,200,200)">
    <path
       class="cls-6"
       d="m 0,1920 v -539.9 h 1079.9 v 540 z"
       id="path6" />
    <path
       class="cls-5"
       d="m 799.2,1920 c 6.5,-27.9 13,-55.8 20.2,-84.6 7.2,-28.9 15,-58.7 33.5,-80.4 18.4,-21.7 47.3,-35.2 73.6,-46.2 26.2,-11.1 49.8,-19.5 75,-30.6 25.1,-11.2 51.8,-25 78.6,-38.8 v 280.8 H 799.3 v -0.2 z"
       id="path7" />
    <path
       class="cls-1"
       d="m 869.4,1920 c 4.9,-21 9.8,-41.8 15.2,-63.5 5.4,-21.7 11.2,-44 25.1,-60.3 13.8,-16.2 35.5,-26.4 55.2,-34.7 19.7,-8.2 37.3,-14.6 56.2,-22.9 18.9,-8.4 38.9,-18.7 58.9,-29.2 V 1920 Z"
       id="path8" />
    <path
       class="cls-2"
       d="m 939.6,1920 c 3.2,-13.9 6.5,-27.9 10.1,-42.3 3.6,-14.4 7.5,-29.3 16.7,-40.2 9.2,-10.8 23.7,-17.6 36.8,-23.1 13.1,-5.5 24.9,-9.7 37.4,-15.3 12.5,-5.6 25.9,-12.6 39.3,-19.4 v 140.4 H 939.5 v 0 z"
       id="path9" />
    <path
       class="cls-4"
       d="m 1009.8,1920 c 1.6,-7 3.2,-13.9 5,-21.1 1.8,-7.2 3.7,-14.7 8.4,-20.1 4.6,-5.5 11.8,-8.8 18.4,-11.6 6.6,-2.7 12.5,-4.9 18.8,-7.7 6.3,-2.8 12.9,-6.2 19.6,-9.7 v 70.2 z"
       id="path10" />
  </g>
</svg>
